HIERARCHY
ROOT Hips
{
	OFFSET 50.660801 -5.627976 100.647003
	CHANNELS 6 Xposition Yposition Zposition Xrotation Yrotation Zrotation
	JOINT spine
	{
		OFFSET 0.000000 -0.507025 8.817039
		CHANNELS 3 Xrotation Yrotation Zrotation
		JOINT spine1
		{
			OFFSET 0.000000 -0.000002 10.776604
			CHANNELS 3 Xrotation Yrotation Zrotation
			JOINT spine2
			{
				OFFSET 0.000000 -0.000002 10.325897
				CHANNELS 3 Xrotation Yrotation Zrotation
				JOINT Neck
				{
					OFFSET 0.000000 -1.263954 26.511002
					CHANNELS 3 Xrotation Yrotation Zrotation
					JOINT Head
					{
						OFFSET 0.000000 -0.000001 8.009659
						CHANNELS 3 Xrotation Yrotation Zrotation
						End Site
						{
							OFFSET 0.000000 6.393857 19.387894
						}
					}
				}
				JOINT RightShoulder
				{
					OFFSET -4.347950 0.605421 11.151199
					CHANNELS 3 Xrotation Yrotation Zrotation
					JOINT RightArm
					{
						OFFSET 0.000000 -0.000002 14.625793
						CHANNELS 3 Xrotation Yrotation Zrotation
						JOINT RightArmRoll
						{
							OFFSET 0.000000 -0.000001 7.383392
							CHANNELS 3 Xrotation Yrotation Zrotation
							JOINT RightForeArm
							{
								OFFSET 0.000000 -0.000003 21.505203
								CHANNELS 3 Xrotation Yrotation Zrotation
								JOINT RightForeArmRoll
								{
									OFFSET 0.000000 -0.000001 8.285324
									CHANNELS 3 Xrotation Yrotation Zrotation
									JOINT RightHand
									{
										OFFSET 0.000000 -0.000003 16.626801
										CHANNELS 3 Xrotation Yrotation Zrotation
										End Site
										{
											OFFSET 0.000000 0.000000 0.100006
										}
									}
								}
							}
						}
					}
				}
				JOINT LeftShoulder
				{
					OFFSET 4.347950 0.605421 11.151199
					CHANNELS 3 Xrotation Yrotation Zrotation
					JOINT LeftArm
					{
						OFFSET 0.000000 -0.000002 14.625793
						CHANNELS 3 Xrotation Yrotation Zrotation
						JOINT LeftArmRoll
						{
							OFFSET 0.000000 -0.000001 7.383392
							CHANNELS 3 Xrotation Yrotation Zrotation
							JOINT LeftForeArm
							{
								OFFSET 0.000000 -0.000003 21.505203
								CHANNELS 3 Xrotation Yrotation Zrotation
								JOINT LeftForeArmRoll
								{
									OFFSET 0.000000 -0.000001 8.285324
									CHANNELS 3 Xrotation Yrotation Zrotation
									JOINT LeftHand
									{
										OFFSET 0.000000 -0.000003 16.626801
										CHANNELS 3 Xrotation Yrotation Zrotation
										End Site
										{
											OFFSET 0.000000 0.000000 0.100006
										}
									}
								}
							}
						}
					}
				}
			}
		}
	}
	JOINT RightUpLeg
	{
		OFFSET -7.815102 1.202170 -1.433090
		CHANNELS 3 Xrotation Yrotation Zrotation
		JOINT RightUpLegRoll
		{
			OFFSET 0.000000 -0.000003 19.495895
			CHANNELS 3 Xrotation Yrotation Zrotation
			JOINT RightLeg
			{
				OFFSET 0.000000 0.000004 -24.142700
				CHANNELS 3 Xrotation Yrotation Zrotation
				JOINT RightLegRoll
				{
					OFFSET 0.000000 -0.000004 24.221703
					CHANNELS 3 Xrotation Yrotation Zrotation
					JOINT RightFoot
					{
						OFFSET 0.000000 -0.000003 20.160500
						CHANNELS 3 Xrotation Yrotation Zrotation
						JOINT RightToeBase
						{
							OFFSET 0.000000 -0.000003 16.853195
							CHANNELS 3 Xrotation Yrotation Zrotation
							End Site
							{
								OFFSET 0.007145 0.940778 8.161865
							}
						}
					}
				}
			}
		}
	}
	JOINT LeftUpLeg
	{
		OFFSET 7.815102 1.202170 -1.433090
		CHANNELS 3 Xrotation Yrotation Zrotation
		JOINT LeftUpLegRoll
		{
			OFFSET 0.000000 -0.000003 19.496002
			CHANNELS 3 Xrotation Yrotation Zrotation
			JOINT LeftLeg
			{
				OFFSET 0.000000 -0.000004 24.142593
				CHANNELS 3 Xrotation Yrotation Zrotation
				JOINT LeftLegRoll
				{
					OFFSET 0.000000 -0.000004 24.445602
					CHANNELS 3 Xrotation Yrotation Zrotation
					JOINT LeftFoot
					{
						OFFSET 0.000000 -0.000003 19.936600
						CHANNELS 3 Xrotation Yrotation Zrotation
						JOINT LeftToeBase
						{
							OFFSET 0.000000 -0.000003 16.853195
							CHANNELS 3 Xrotation Yrotation Zrotation
							End Site
							{
								OFFSET -0.032013 0.940779 8.161865
							}
						}
					}
				}
			}
		}
	}
}
MOTION
Frames: 7
Frame Time: 0.041667
50.992996 -5.080601 100.671989 -3.831358 -0.008526 2.136299 -1.949541 -0.026917 -0.105341 0.103706 -0.071564 -0.202679 1.748761 -0.073885 -0.201884 27.579059 4.054144 0.137908 0.931217 3.764375 0.154469 -5.896201 -66.451088 -7.616884 -46.006532 -114.619973 -31.918662 0.000001 -0.000000 -0.000000 0.109868 -14.707974 -0.475209 0.000008 -0.000007 -3.039900 -5.000229 -7.998786 0.000173 -7.928746 62.993762 9.674588 -37.420684 114.505902 29.954109 -0.000006 0.000003 0.000000 2.455502 11.680765 0.185236 -0.000009 -0.000009 3.000000 -5.000251 7.998712 -0.000159 2.830254 -178.239155 0.046052 -179.999991 0.000005 -1.133998 174.477524 -1.620446 -0.433652 0.000005 0.000002 0.037072 68.322034 6.904925 2.131897 25.636915 -7.354772 0.272481 1.512349 176.988056 2.080668 -0.000005 -0.000005 -1.137780 -7.701492 2.035924 0.455369 -0.000003 -0.000001 -0.128101 69.895628 -6.888647 -2.063151 25.456953 7.355613 -0.000002 
50.975792 -5.071929 100.671989 -3.825719 -0.006531 2.125783 -1.950911 -0.026917 -0.105155 0.100962 -0.071090 -0.201747 1.746011 -0.073427 -0.200948 27.569529 4.089274 0.138465 0.942585 3.742446 0.160822 -5.892042 -66.436492 -7.611070 -45.986267 -114.615956 -31.884751 0.000002 -0.000000 -0.000001 0.109867 -14.693275 -0.470358 0.000005 -0.000008 -3.039390 -5.000230 -7.998781 0.000174 -7.939543 63.009943 9.688219 -37.441386 114.496551 29.981467 -0.000007 0.000004 0.000002 2.469665 11.687535 0.182906 -0.000005 -0.000009 3.000000 -5.000249 7.998712 -0.000159 2.821952 -178.244127 0.036768 -179.999991 0.000005 -1.133998 174.479546 -1.611490 -0.433726 0.000005 0.000002 0.037072 68.323728 6.904942 2.131896 25.631967 -7.354775 0.264925 1.508108 176.984039 2.075675 -0.000005 -0.000004 -1.137780 -7.700003 2.040430 0.455371 -0.000003 -0.000001 -0.128101 69.893722 -6.888622 -2.063267 25.456955 7.355613 -0.000002 
50.966095 -5.057499 100.669998 -3.819829 -0.004526 2.115168 -1.952323 -0.026917 -0.104968 0.098135 -0.070589 -0.200759 1.743191 -0.072944 -0.199955 27.559919 4.124565 0.139070 0.954239 3.720145 0.167280 -5.887988 -66.421793 -7.605364 -45.968259 -114.611517 -31.853981 0.000001 0.000000 0.000001 0.109864 -14.679174 -0.465593 0.000005 -0.000009 -3.038901 -5.000233 -7.998782 0.000173 -7.950245 63.026144 9.701741 -37.460565 114.487938 30.007357 -0.000005 0.000003 0.000001 2.484308 11.694406 0.180506 -0.000007 -0.000009 3.000002 -5.000251 7.998712 -0.000158 2.813339 -178.250111 0.027151 -179.999991 0.000005 -1.133998 174.481636 -1.601543 -0.433703 0.000005 0.000002 0.037072 68.325510 6.904930 2.131882 25.626810 -7.354778 0.257100 1.503528 176.980037 2.070561 -0.000004 -0.000004 -1.137780 -7.698593 2.045066 0.455372 -0.000003 -0.000001 -0.128101 69.891803 -6.888599 -2.063180 25.456948 7.355613 -0.000002 
50.978901 -5.066876 100.672981 -3.813772 -0.002515 2.104463 -1.953759 -0.026917 -0.104782 0.095249 -0.070071 -0.199729 1.740311 -0.072444 -0.198922 27.550118 4.159984 0.139722 0.966090 3.697607 0.173811 -5.884015 -66.407088 -7.599747 -45.949210 -114.607992 -31.822459 -0.000000 -0.000000 -0.000000 0.109865 -14.665374 -0.460894 0.000006 -0.000008 -3.038419 -5.000232 -7.998784 0.000174 -7.960869 63.042243 9.715170 -37.481100 114.478533 30.034828 -0.000006 0.000004 0.000001 2.499271 11.701371 0.178051 -0.000008 -0.000008 3.000002 -5.000252 7.998712 -0.000158 2.804510 -178.256094 0.017335 -179.999991 0.000005 -1.133998 174.483780 -1.592588 -0.433789 0.000004 0.000002 0.037072 68.327293 6.904917 2.131967 25.621465 -7.354789 0.249095 1.498720 176.975037 2.065364 -0.000005 -0.000004 -1.137780 -7.697237 2.049799 0.455372 -0.000003 -0.000001 -0.128101 69.889692 -6.888638 -2.063219 25.456957 7.355613 -0.000002 
50.981396 -5.059147 100.670006 -3.807609 -0.000501 2.093717 -1.955226 -0.026917 -0.104595 0.092329 -0.069542 -0.198678 1.737392 -0.071934 -0.197866 27.540332 4.195463 0.140408 0.978062 3.674927 0.180389 -5.880093 -66.392376 -7.594189 -45.928753 -114.605219 -31.789664 0.000001 0.000000 0.000000 0.109863 -14.651777 -0.456230 0.000006 -0.000009 -3.037950 -5.000230 -7.998782 0.000174 -7.971481 63.058431 9.728594 -37.500317 114.469927 30.060923 -0.000005 0.000005 0.000001 2.514418 11.708330 0.175573 -0.000007 -0.000009 3.000001 -5.000251 7.998713 -0.000158 2.795560 -178.262063 0.007409 -179.999991 0.000005 -1.133998 174.485980 -1.582642 -0.433765 0.000005 0.000002 0.037072 68.329192 6.904913 2.131946 25.616109 -7.354790 0.240995 1.493774 176.971021 2.060140 -0.000005 -0.000004 -1.137780 -7.695908 2.054592 0.455373 -0.000003 -0.000001 -0.128101 69.887684 -6.888644 -2.063143 25.456952 7.355613 -0.000002 
50.975201 -5.061720 100.669991 -3.801428 0.001512 2.082960 -1.956680 -0.026917 -0.104408 0.089402 -0.069011 -0.197621 1.734471 -0.071422 -0.196804 27.530561 4.230967 0.141108 0.990052 3.652207 0.186987 -5.876202 -66.377773 -7.588659 -45.910035 -114.601832 -31.758846 -0.000000 0.000000 -0.000000 0.109866 -14.638176 -0.451578 0.000005 -0.000008 -3.037489 -5.000232 -7.998782 0.000173 -7.982093 63.074639 9.742011 -37.519346 114.461266 30.086854 -0.000005 0.000003 0.000002 2.529630 11.715391 0.173073 -0.000008 -0.000008 3.000000 -5.000253 7.998713 -0.000158 2.786582 -178.267049 -0.002496 -179.999991 0.000005 -1.133998 174.488165 -1.572694 -0.433741 0.000005 0.000002 0.037072 68.330968 6.904900 2.131934 25.610757 -7.354792 0.232866 1.488796 176.967019 2.054910 -0.000005 -0.000004 -1.137780 -7.694590 2.059395 0.455373 -0.000004 -0.000002 -0.128101 69.885655 -6.888615 -2.063163 25.456957 7.355613 -0.000002 
50.971096 -5.030838 100.675003 -3.795298 0.003520 2.072223 -1.958143 -0.026917 -0.104222 0.086492 -0.068485 -0.196576 1.731561 -0.070915 -0.195754 27.520794 4.266424 0.141816 1.001990 3.629566 0.193576 -5.872293 -66.363067 -7.583110 -45.891317 -114.598458 -31.727830 0.000001 -0.000000 -0.000001 0.109869 -14.624576 -0.446903 0.000007 -0.000008 -3.037021 -5.000230 -7.998782 0.000173 -7.992704 63.090724 9.755427 -37.539932 114.451875 30.114441 -0.000004 0.000003 0.000001 2.544728 11.722350 0.170594 -0.000008 -0.000008 3.000001 -5.000248 7.998713 -0.000158 2.777659 -178.273033 -0.012389 -179.999991 0.000005 -1.133998 174.490365 -1.562746 -0.433719 0.000005 0.000002 0.037072 68.332764 6.904926 2.131927 25.605404 -7.354800 0.224790 1.483884 176.963016 2.049697 -0.000005 -0.000004 -1.137780 -7.693263 2.064168 0.455373 -0.000004 -0.000001 -0.128101 69.883545 -6.888619 -2.063198 25.456953 7.355614 -0.000002 
